<?xml version="1.0" encoding="UTF-8"?><svg id="_レイヤー_2" xmlns="http://www.w3.org/2000/svg" viewBox="0 0 205 165"><defs><style>.cls-1{fill:none;stroke:#fff;stroke-linecap:round;stroke-linejoin:round;stroke-width:5px;}</style></defs><g id="Layer_1"><polyline class="cls-1" points="62.53 162.5 128.46 162.5 142.46 162.5"/><rect class="cls-1" x="2.5" y="2.5" width="199.99" height="136.63" rx="8.12" ry="8.12"/><line class="cls-1" x1="113.01" y1="139.13" x2="123.44" y2="162.5"/><line class="cls-1" x1="91.98" y1="139.13" x2="81.55" y2="162.5"/><line class="cls-1" x1="202.5" y1="120.71" x2="2.51" y2="120.71"/><path class="cls-1" d="M98.49,130.09c0-2.23,1.8-4.04,4.01-4.04s4.01,1.81,4.01,4.04-1.8,4.04-4.01,4.04-4.01-1.81-4.01-4.04Z"/><line class="cls-1" x1="23.05" y1="42.51" x2="104.69" y2="42.51"/><line class="cls-1" x1="23.05" y1="53.12" x2="104.69" y2="53.12"/><line class="cls-1" x1="23.05" y1="89.4" x2="104.69" y2="89.4"/><line class="cls-1" x1="23.05" y1="100.02" x2="104.69" y2="100.02"/><ellipse class="cls-1" cx="132.55" cy="48.72" rx="14.59" ry="14.68"/><polyline class="cls-1" points="125.29 49.09 129.47 53.68 139.82 43.77"/><ellipse class="cls-1" cx="132.55" cy="93.3" rx="14.59" ry="14.68"/><ellipse class="cls-1" cx="170.62" cy="48.72" rx="14.59" ry="14.68"/><ellipse class="cls-1" cx="170.62" cy="93.3" rx="14.59" ry="14.68"/><line class="cls-1" x1="2.51" y1="19.68" x2="202.49" y2="19.68"/><line class="cls-1" x1="163.26" y1="85.75" x2="177.98" y2="100.85"/><line class="cls-1" x1="177.98" y1="85.75" x2="163.26" y2="100.85"/></g></svg>